<svg width="159.67848" height="385.97244" xmlns="http://www.w3.org/2000/svg" data-name="Layer 1">
 <g>
  <title>Layer 1</title>
  <path transform="rotate(179.995 628.428 1075.23)" d="m1126.9761,1767.43964l35.92974,0a0,0 0 0 1 0,0l0,13.882a0,0 0 0 1 0,0l-22.04779,0a13.88193,13.88193 0 0 1 -13.88195,-13.88194l0,0a0,0 0 0 1 0,-0.00006z" fill="#2f2e41" id="svg_10"/>
  <path transform="rotate(179.995 505.186 1075.24)" d="m942.11238,1767.44526l35.92974,0a0,0 0 0 1 0,0l0,13.882a0,0 0 0 1 0,0l-22.04781,0a13.88193,13.88193 0 0 1 -13.88193,-13.88193l0,0a0,0 0 0 1 0,-0.00007z" fill="#2f2e41" id="svg_12"/>
  <path d="m195.99999,384.97244l-231,0a1,1 0 0 1 0,-2l231,0a1,1 0 0 1 0,2z" fill="#ccc" id="svg_33"/>
  <g id="svg_3">
   <path d="m157.62363,162.45622a2.45891,2.45891 0 0 1 1.28619,3.23082l-3.33917,7.75612l0.37848,0.19347l-2.27683,5.26434l-0.36447,-0.20189l-11.9626,27.78614a4.26426,4.26426 0 0 1 -5.08211,2.41571l-18.60033,-5.28456a3.22777,3.22777 0 0 1 -2.02529,-4.50693l18.7479,-38.87759a3.99371,3.99371 0 0 1 4.49837,-2.156l18.30242,4.2388l0,0a2.45624,2.45624 0 0 1 0.43744,0.14157z" fill="#3f3d56" id="svg_1"/>
   <path d="m142.14251,161.07172l9.62175,2.22836a0.80824,0.80824 0 0 0 0.89535,-0.40661l0,0a0.91553,0.91553 0 0 1 1.01411,-0.4606l2.02676,0.46939a1.94,1.94 0 0 1 1.34473,2.65567l-17.31362,40.2974a2.21482,2.21482 0 0 1 -2.67477,1.24612l-18.46951,-5.57258a1.71022,1.71022 0 0 1 -1.05155,-2.36943l18.2992,-38.6289a2.76,2.76 0 0 1 3.117,-1.50722l2.13647,0.49479a1.38161,1.38161 0 0 0 1.05408,1.55361z" fill="#6c63ff" id="svg_2"/>
   <polygon points="96.33700561523438,372.4599914550781 107.76899719238281,372.4590148925781 113.20599365234375,328.3630065917969 96.33299255371094,328.364013671875 96.33700561523438,372.4599914550781 " fill="#ffb8b8" id="svg_9"/>
   <polygon points="34.714996337890625,372.4599914550781 46.14800262451172,372.4590148925781 51.58399963378906,328.3630065917969 34.71099853515625,328.364013671875 34.714996337890625,372.4599914550781 " fill="#ffb8b8" id="svg_11"/>
   <circle cx="68.19637" cy="34.42374" r="24.56103" fill="#ffb8b8" id="svg_13"/>
   <path d="m152.17888,194.6018a9.377,9.377 0 0 0 -12.09228,-7.77927l-13.72625,-16.45445l-12.03377,5.90259l19.71048,22.96462a9.42779,9.42779 0 0 0 18.14182,-4.63349z" fill="#ffb8b8" id="svg_14"/>
   <path d="m34.04516,211.24345a9.37695,9.37695 0 0 0 -6.03109,-13.05244l-2.75577,-21.25l-13.322,-1.47492l4.31317,29.95452a9.42779,9.42779 0 0 0 17.79574,5.82289l-0.00005,-0.00005z" fill="#ffb8b8" id="svg_15"/>
   <path d="m15.4015,198.24978a4.50084,4.50084 0 0 1 -4.45068,-3.83935l-6.55737,-44.15869a31.74044,31.74044 0 0 1 1.93127,-16.45264l20.13135,-50.24023a12.58356,12.58356 0 0 1 21.60876,-3.05176l0.00012,0a12.55937,12.55937 0 0 1 1.55982,12.86816l-9.49048,21.228a144.86846,144.86846 0 0 0 -11.62366,75.96924a4.49887,4.49887 0 0 1 -3.1484,4.82571l-8.639,2.65332a4.50764,4.50764 0 0 1 -1.32173,0.19824z" fill="#ccc" id="svg_16"/>
   <path d="m62.21623,58.98378a26.205,26.205 0 1 1 4.91018,-51.82531c5.40118,-3.27952 11.6809,-5.48627 17.97478,-4.925s12.51835,4.29789 14.87192,10.16208s-0.17487,13.59411 -6.02708,15.97731c-3.75184,1.52786 -7.98866,0.78691 -11.99255,0.1708s-8.37171,-1.01817 -11.85634,1.04773s-5.05107,7.60549 -1.93026,10.18836a10.73847,10.73847 0 0 1 3.0842,11.82027c-1.56851,4.05629 -5.84941,7.31494 -9.03485,7.38376z" fill="#2f2e41" id="svg_17"/>
   <path d="m31.38734,363.57596a4.5001,4.5001 0 0 1 -4.50061,-4.61866l4.36926,-165.81591l0.47644,-0.01075l72.22632,-1.5747l12.47048,161.23584a4.51375,4.51375 0 0 1 -2.98083,4.5625l-0.137,0.02783l-14.17553,0.86621a4.49961,4.49961 0 0 1 -5.83045,-3.28272l-23.10753,-103.39648a1.50006,1.50006 0 0 0 -2.94531,0.0918l-17.07117,107.38916a4.52141,4.52141 0 0 1 -4.21484,3.78759l-14.35218,0.73243q-0.1137,0.00585 -0.22705,0.00586z" fill="#2f2e41" id="svg_18"/>
   <path d="m52.64381,206.866c-8.98791,0 -16.83691,-1.35791 -21.171,-5.23243c-2.78528,-2.48974 -3.98987,-5.87548 -3.58008,-10.06347c1.54029,-15.74268 -1.12878,-50.24805 -3.639,-76.42237a46.495,46.495 0 0 1 10.72,-34.27539a44.279,44.279 0 0 1 30.86865,-15.77148c8.26855,-0.58887 27.631,-1.96192 33.64953,13.45312c9.04139,23.15625 4.61939,33.77539 0.343,44.04493c-3.63318,8.7246 -7.39,17.74658 -2.785,34.68847a253.10481,253.10481 0 0 0 9.227,27.59766c2.49365,6.39453 3.74536,9.604 2.58972,11.70019c-0.91162,1.65381 -3.18567,2.374 -7.063,3.12452c-1.26648,0.2456 -2.93994,0.60107 -4.933,1.0249c-10.13221,2.15381 -28.84633,6.13135 -44.22682,6.13135z" fill="#ccc" id="svg_19"/>
   <path d="m126.43532,192.3533c-0.03467,0 -0.0691,0 -0.10376,-0.001a4.49611,4.49611 0 0 1 -3.37537,-1.644l-25.45947,-31.02393a48.4281,48.4281 0 0 1 -10.37244,-23.04492l-7.83911,-48.99123a12.5837,12.5837 0 1 1 24.9198,-3.48681l3.11645,25.98486a134.26251,134.26251 0 0 0 26.94422,65.93359l1.781,2.311a4.49883,4.49883 0 0 1 -0.22033,5.75781l-6.04749,6.71582a4.4957,4.4957 0 0 1 -3.3435,1.48881z" fill="#ccc" id="svg_20"/>
  </g>
 </g>

</svg>